PathFileType	4	(X/Y/Z)	D:\TRACE\v60_Jaco2_6-2-23\v60_baseline_3-platform.trc
DataRate	CameraRate	NumFrames	NumMarkers	Units	OrigDataRate	OrigDataStartFrame	OrigNumFrames
100.00	100.00	      67	5	mm	100.00	3251	      6500
Frame#	Time	Left_Front			Right_Front			Left_Aft			Right_Aft			Post			
		X1	Y1	Z1	X2	Y2	Z2	X3	Y3	Z3	X4	Y4	Z4	X5	Y5	Z5	

3251	32.500	-800.48248	8.98138	-638.87933	769.40619	10.05684	-644.35449	-708.77527	7.94390	496.14615	733.22937	6.76951	505.22427	-14.04316	1308.00769	-961.84393	
3252	32.510	-800.51666	9.08100	-638.71051	769.40704	10.08361	-644.32446	-708.73499	8.00023	496.21585	733.23883	6.77420	505.27615	-14.03517	1308.08374	-962.05023	
3253	32.520	-800.49335	9.07835	-638.73114	769.34985	10.21412	-644.37695	-708.75458	8.08299	496.20621	733.35449	6.87507	505.28033	-14.02572	1308.20789	-962.26044	
3254	32.530	-800.53784	9.04153	-638.76611	769.41724	10.20697	-644.40521	-708.75323	7.99106	496.25888	733.31561	6.83602	505.28281	-14.02324	1308.23242	-962.33490	
3255	32.540	-800.54022	8.96008	-638.89130	769.48700	10.12467	-644.34131	-708.78333	8.01163	496.18729	733.36963	6.82800	505.24112	-13.99378	1308.16809	-962.21625	
3256	32.550	-800.51630	8.90402	-638.87842	769.42212	10.06480	-644.34216	-708.76007	7.93625	496.18869	733.24335	6.78267	505.23611	-13.99838	1308.05920	-962.06750	
3257	32.560	-800.54340	8.95275	-638.82208	769.40320	10.04562	-644.34558	-708.76318	7.99706	496.13248	733.29382	6.82964	505.22385	-14.10340	1308.04468	-961.89850	
3258	32.570	-800.54553	9.04251	-638.75610	769.46320	10.08900	-644.34094	-708.80090	8.10328	496.16214	733.35999	6.85406	505.20612	-14.16336	1308.08447	-961.73071	
3259	32.580	-800.55865	9.13371	-638.74054	769.44781	10.15409	-644.39001	-708.78137	8.10010	496.13477	733.38611	6.91403	505.23248	-14.15529	1308.11816	-961.67712	
3260	32.590	-800.51581	9.00827	-638.78131	769.46771	10.16763	-644.35645	-708.78625	8.04059	496.15402	733.37189	6.90326	505.24377	-14.15044	1308.10095	-961.64423	
3261	32.600	-800.48871	8.87414	-638.89142	769.45026	10.14124	-644.37036	-708.78125	7.97435	496.17938	733.24530	6.78078	505.21756	-14.05897	1308.10449	-961.70734	
3262	32.610	-800.51166	8.93720	-638.83295	769.34564	10.11859	-644.39703	-708.75543	7.97679	496.18887	733.26367	6.78127	505.23865	-14.08864	1308.08655	-961.84802	
3263	32.620	-800.53174	9.04662	-638.80554	769.38812	10.10488	-644.37286	-708.78265	7.99357	496.15573	733.21753	6.77399	505.24918	-14.12475	1308.14368	-961.96429	
3264	32.630	-800.51062	9.14078	-638.76593	769.47052	10.16858	-644.37036	-708.74066	8.03180	496.20709	733.29346	6.81839	505.25296	-14.06112	1308.17065	-962.05542	
3265	32.640	-800.55969	9.08837	-638.73340	769.43060	10.20766	-644.36304	-708.75525	8.02674	496.18436	733.35840	6.86856	505.25784	-14.05972	1308.17761	-961.99408	
3266	32.650	-800.52502	8.94816	-638.79352	769.47369	10.14141	-644.35767	-708.78174	8.01723	496.21014	733.19495	6.75204	505.23483	-13.99893	1308.06287	-961.93036	
3267	32.660	-800.54376	8.87473	-638.84692	769.41656	10.08073	-644.38049	-708.77240	7.98313	496.19818	733.14215	6.72537	505.19922	-14.04419	1308.01416	-961.92261	
3268	32.670	-800.54883	8.95059	-638.76886	769.46545	10.07878	-644.33075	-708.76477	7.99734	496.16034	733.23724	6.78945	505.22433	-14.03119	1308.01917	-961.92853	
3269	32.680	-800.53253	9.02996	-638.81360	769.36908	10.12437	-644.36505	-708.80438	8.04869	496.14145	733.22467	6.82170	505.22818	-14.13052	1308.07922	-961.93372	
3270	32.690	-800.54150	9.14238	-638.74457	769.44666	10.15419	-644.35632	-708.76544	8.04930	496.16916	733.41687	6.92457	505.25116	-14.09540	1308.13318	-961.93811	
3271	32.700	-800.52582	9.02197	-638.76727	769.40399	10.19196	-644.40332	-708.76605	7.98865	496.24454	733.31287	6.85057	505.24213	-14.07048	1308.15161	-962.01233	
3272	32.710	-800.53326	8.99987	-638.75073	769.34167	10.19742	-644.40753	-708.69049	7.80763	496.20651	733.26862	6.82049	505.22733	-13.98709	1308.12219	-962.00928	
3273	32.720	-800.48694	8.92345	-638.84442	769.43439	10.17670	-644.39270	-708.66895	7.82135	496.19281	733.32550	6.86187	505.24377	-14.09962	1308.14343	-961.92261	
3274	32.730	-800.49475	9.06722	-638.77686	769.28595	10.25741	-644.43982	-708.65393	7.83660	496.15784	733.27563	6.82008	505.23959	-14.14889	1308.15137	-961.85126	
3275	32.740	-800.51019	9.19669	-638.78217	769.39160	10.34444	-644.44922	-708.71582	7.98196	496.20050	733.34589	6.91963	505.25507	-14.05361	1308.09985	-961.72754	
3276	32.750	-800.48212	9.17093	-638.74841	769.42639	10.35842	-644.42267	-708.71350	7.99887	496.19101	733.35730	6.89695	505.26639	-14.09292	1308.11572	-961.70917	
3277	32.760	-800.65533	8.71619	-638.76648	769.38892	10.12022	-644.41510	-708.74835	8.02422	496.17929	733.18018	6.66127	505.21442	-14.09732	1308.13428	-961.83246	
3278	32.770	-800.63196	8.62981	-638.84705	769.39575	10.05616	-644.35352	-708.70612	8.03916	496.14114	733.30212	6.80891	505.26877	-14.14455	1308.07874	-961.82849	
3279	32.780	-800.55957	8.64262	-638.92651	769.40375	10.08811	-644.35284	-708.77332	8.00538	496.13870	733.24731	6.76608	505.22391	-14.00177	1308.01465	-961.93610	
3280	32.790	-800.54120	8.89698	-638.81067	769.40283	10.21514	-644.41101	-708.74939	7.99687	496.21140	733.27563	6.75744	505.23502	-13.97585	1308.05249	-962.07373	
3281	32.800	-800.50934	9.09957	-638.73480	769.40344	10.25070	-644.42462	-708.72083	8.06985	496.17526	733.39758	6.87802	505.25723	-14.01517	1308.14783	-962.17828	
3282	32.810	-800.60400	9.06691	-638.64648	769.32446	10.27949	-644.45038	-708.65894	7.98537	496.22812	733.26801	6.75692	505.25412	-14.03839	1308.21045	-962.16846	
3283	32.820	-800.63556	8.74912	-638.83203	769.35107	10.26432	-644.45807	-708.69098	7.96460	496.21213	733.23279	6.70833	505.26077	-14.06041	1308.12756	-962.12793	
3284	32.830	-800.61609	8.61901	-638.92346	769.35718	10.18300	-644.42065	-709.01483	8.41409	495.86597	733.16962	6.74192	505.21841	-14.02470	1308.02771	-961.97003	
3285	32.840	-800.58429	8.79478	-638.89008	769.34320	10.13804	-644.40155	-708.73224	7.84884	496.14743	733.14648	6.70938	505.20490	-14.02002	1307.98877	-961.84875	
3286	32.850	-800.50854	8.98323	-638.77563	769.40179	10.18352	-644.39142	-708.67676	7.92198	496.20984	733.36572	6.83352	505.24228	-13.96543	1308.02502	-961.79333	
3287	32.860	-800.54651	8.99308	-638.70819	769.37799	10.23591	-644.42688	-708.61011	7.94280	496.26431	733.32623	6.79601	505.22888	-13.98268	1308.03540	-961.70258	
3288	32.870	-800.60895	8.92290	-638.68585	769.35913	10.31894	-644.42236	-708.64642	7.97725	496.24631	733.24817	6.77452	505.25171	-14.06850	1308.07568	-961.78497	
3289	32.880	-800.61694	8.77711	-638.84778	769.37494	10.23546	-644.46063	-708.63971	7.91114	496.19659	733.34613	6.83405	505.26465	-13.99905	1308.14087	-961.95917	
3290	32.890	-800.56598	8.78580	-638.88495	769.30768	10.15619	-644.47583	-708.70435	7.90048	496.16599	733.27277	6.78797	505.24469	-13.99075	1308.07581	-961.97705	
3291	32.900	-800.46332	8.82911	-638.93219	769.31995	10.18496	-644.43256	-708.70776	7.88883	496.15079	733.45642	6.86818	505.26596	-14.01961	1308.08813	-962.05200	
3292	32.910	-800.48206	8.90364	-638.79608	769.28827	10.24853	-644.43207	-708.66241	7.94646	496.22751	733.32446	6.79011	505.25494	-13.94956	1308.06653	-962.04144	
3293	32.920	-800.56891	8.95156	-638.72571	769.38074	10.26121	-644.40997	-708.61432	7.94136	496.23950	733.29156	6.80187	505.23782	-14.05391	1308.15112	-962.10614	
3294	32.930	-800.60077	8.89614	-638.79169	769.32550	10.29337	-644.46350	-708.64648	7.94813	496.22079	733.27386	6.77272	505.23529	-14.02935	1308.17896	-962.11267	
3295	32.940	-800.61469	8.82754	-638.79034	769.31897	10.21689	-644.41119	-708.66479	7.88670	496.18024	733.27826	6.78126	505.26620	-13.96968	1308.07422	-962.02686	
3296	32.950	-800.53949	8.75715	-638.89606	769.36395	10.19345	-644.42682	-708.68738	7.90087	496.17871	733.29138	6.80293	505.23187	-13.99753	1308.01001	-961.93219	
3297	32.960	-800.54010	8.81190	-638.85492	769.40106	10.14478	-644.39014	-708.66815	7.86933	496.20193	733.34027	6.81575	505.24002	-14.05036	1308.00256	-961.86469	
3298	32.970	-800.56891	8.96818	-638.76282	769.41327	10.17451	-644.40759	-708.68384	7.95796	496.21783	733.31903	6.81060	505.25900	-13.98649	1308.03101	-961.82190	
3299	32.980	-800.58630	8.90870	-638.74225	769.38306	10.24707	-644.43677	-708.66974	7.95657	496.19901	733.23846	6.75226	505.24438	-13.99438	1308.12830	-961.94873	
3300	32.990	-800.59644	8.90191	-638.79102	769.36700	10.28753	-644.44507	-708.67529	7.91816	496.21259	733.22522	6.73185	505.21799	-14.05996	1308.15320	-961.97272	
3301	33.000	-800.56769	8.70738	-638.86682	769.32806	10.24441	-644.45227	-708.65588	7.88719	496.19131	733.32178	6.77568	505.23779	-14.03714	1308.08118	-961.96674	
3302	33.010	-800.51471	8.77280	-638.88074	769.39404	10.15593	-644.41803	-708.62445	7.85582	496.18900	733.41241	6.83384	505.27859	-14.02037	1308.06274	-961.99280	
3303	33.020	-800.55310	8.84712	-638.85358	769.31488	10.20217	-644.40338	-708.63538	7.86463	496.17923	733.38849	6.83434	505.25659	-14.04219	1308.06177	-962.01587	
3304	33.030	-800.62073	8.97730	-638.72351	769.31714	10.21811	-644.41742	-708.77710	8.05864	495.99976	733.22168	6.75572	505.22949	-14.02376	1308.02673	-962.05646	
3305	33.040	-800.60602	8.89197	-638.72961	769.36108	10.24613	-644.43945	-708.73792	8.11044	496.11450	733.27008	6.73500	505.23575	-14.00223	1308.06531	-962.04651	
3306	33.050	-800.61072	8.87444	-638.75299	769.40405	10.24457	-644.42627	-708.74481	8.08920	496.19452	733.27252	6.78286	505.24841	-14.01322	1308.09412	-962.02112	
3307	33.060	-800.52557	8.77260	-638.92456	769.37708	10.22532	-644.44397	-708.74146	8.07925	496.17514	733.40900	6.85417	505.25681	-14.06340	1308.08972	-962.03442	
3308	33.070	-800.53717	8.82070	-638.91602	769.42096	10.18000	-644.40259	-708.75543	8.06886	496.16232	733.47357	6.91750	505.27774	-13.99999	1308.06860	-962.05701	
3309	33.080	-800.54370	8.90347	-638.80157	769.42914	10.19940	-644.34094	-708.76373	8.10272	496.16028	733.37164	6.85535	505.24271	-14.07375	1308.08838	-962.06299	
3310	33.090	-800.62842	8.93674	-638.69672	769.38025	10.21589	-644.42175	-708.73273	8.09370	496.17792	733.38312	6.82850	505.26471	-14.06006	1308.07874	-962.01526	
3311	33.100	-800.60706	8.92541	-638.71674	769.33954	10.30210	-644.43890	-708.75348	8.10851	496.20883	733.29523	6.79423	505.24457	-14.09643	1308.17493	-961.99310	
3312	33.110	-800.54706	8.80504	-638.76685	769.35333	10.23025	-644.44690	-708.74408	8.08974	496.21283	733.32825	6.81750	505.22784	-14.06089	1308.13464	-961.91034	
3313	33.120	-800.46655	8.80342	-638.91144	769.35687	10.22287	-644.42114	-708.74646	8.05462	496.20691	733.30389	6.85262	505.24274	-14.06945	1308.11389	-961.80920	
3314	33.130	-800.49139	8.90860	-638.90070	769.38989	10.15964	-644.43610	-708.78931	8.05992	496.15009	733.33984	6.85163	505.23965	-14.10723	1308.12439	-961.83417	
3315	33.140	-800.48474	9.11938	-638.77380	769.31415	10.27299	-644.42285	-708.77399	8.13532	496.18512	733.24438	6.82860	505.21405	-14.05087	1308.07874	-961.79431	
3316	33.150	-800.57056	9.33038	-638.65509	769.35864	10.30877	-644.48584	-708.86591	8.22651	496.17136	733.20605	6.73006	505.22668	-14.06621	1308.08789	-961.86053	
3317	33.160	-800.55023	9.04591	-638.68768	769.36548	10.21559	-644.43970	-708.87396	8.21824	496.10181	733.24213	6.77149	505.24985	-14.09725	1308.10779	-961.97742	
